<?xml version="1.0" encoding="utf-8"?>
<!-- Svg Vector Icons : http://www.onlinewebfonts.com/icon -->
<!DOCTYPE svg PUBLIC "-//W3C//DTD SVG 1.1//EN" "http://www.w3.org/Graphics/SVG/1.1/DTD/svg11.dtd">
<svg version="1.1" xmlns="http://www.w3.org/2000/svg" xmlns:xlink="http://www.w3.org/1999/xlink" x="0px" y="0px" viewBox="0 0 1000 1000" enable-background="new 0 0 1000 1000" xml:space="preserve">
<metadata> Svg Vector Icons : http://www.onlinewebfonts.com/icon </metadata>
<g><g transform="translate(0.000000,511.000000) scale(0.100000,-0.100000)"><path d="M1072.6,3685.9C290,3515.6-123.5,2654,229.2,1932.3c103.4-210.8,344.6-452.1,555.5-555.5c294-143.9,24.3-135.8,4283.7-129.7l3835.7,6.1l131.8,44.6c385.2,131.8,697.4,448,817,827.1c62.8,198.7,62.8,510.9,0,709.6c-119.6,379.1-431.8,695.4-817,827.1l-131.8,44.6l-3851.9,4.1C1851.1,3712.3,1178,3708.2,1072.6,3685.9z"/><path d="M1068.5-1060c-354.8-77-675.1-330.5-843.4-667c-332.5-673.1,24.3-1488,752.1-1719.2l141.9-44.6h3882.3h3882.3l141.9,44.6c387.2,123.7,705.5,442,827.2,827.1c62.8,198.7,62.8,510.9,0,709.6c-121.6,381.1-429.8,695.4-817,827.1l-131.8,44.6l-3851.9,4.1C1804.4-1031.6,1180-1035.7,1068.5-1060z"/></g></g>
</svg>